<svg xmlns="http://www.w3.org/2000/svg" width="256" height="256"><path fill="#1976D2" fill-opacity=".016" fill-rule="evenodd" d="M0 128.004v128.004l128.25-.254 128.25-.254.254-127.75L257.008 0H0zm.485.496c0 70.4.119 99.053.265 63.672.146-35.38.146-92.98 0-128C.604 29.153.485 58.1.485 128.5"/><path fill="#1976D2" fill-opacity=".414" fill-rule="evenodd" d="M106.5 3.945C19.11 19.517-25.602 118.143 20.34 194c42.455 70.099 139.636 81.864 197.58 23.92 41.134-41.134 48.921-105.422 18.763-154.92C209.454 18.307 157.687-5.175 106.5 3.945M54.982 70.776c-6.141 7.802-12.786 20.148-15.069 27.994-1.442 4.961-1.495 4.899 8.831 10.359 3.466 1.833 7.383 4.241 8.705 5.351 2.291 1.925 2.354 2.286 1.326 7.683-.704 3.699-.765 7.848-.176 11.962l.901 6.298 4.327 1.247c4.751 1.37 21.594 2.23 22.673 1.159.372-.37-.501-2.681-1.94-5.137-7.948-13.562-11.888-31.865-11.401-52.968l.341-14.775-6.219-3.448-6.22-3.448zm94.99-6.023C144.454 71.325 136 83.818 136 85.4c0 .172 4.613.552 10.25.845 13.924.724 24.972 3.874 38.707 11.035 7.947 4.143 17.683 10.328 18.604 11.818.306.496 1.248.902 2.092.902 2.343 0 12.347-6.292 12.347-7.766 0-.714-1.376-4.865-3.057-9.225-3.198-8.293-10.303-19.898-16.06-26.231l-3.383-3.723-9.5 5.569c-5.225 3.063-10.054 5.796-10.73 6.072-.677.277-2.989-.89-5.139-2.592C165.897 68.751 154.936 63 152.778 63c-.733 0-1.996.789-2.806 1.753M119.52 113.23c-10.644 6.181-11.397 22.737-1.358 29.885 4.354 3.101 13.198 3.757 18.26 1.355 5.706-2.708 8.888-7.603 9.382-14.434.804-11.12-5.291-18.2-16.174-18.787-4.982-.268-6.876.103-10.11 1.981M157 164.138c-8.856 13.946-26.088 28.448-43.788 36.852l-7.288 3.46.288 7.525.288 7.525 6 1.28c7.007 1.494 29.939 1.02 35.75-.739l3.75-1.135v-12.453c0-8.076.371-12.453 1.056-12.453 1.907 0 13.088-5.946 16.986-9.033l3.817-3.024-1.601-4.721c-1.969-5.804-9.178-20.231-10.091-20.196-.367.014-2.692 3.214-5.167 7.112"/><path fill="#1976D2" fill-opacity=".578" fill-rule="evenodd" d="M111.5 18.945c-43.49 7.152-78.894 39.65-90.667 83.223-1.942 7.191-2.251 10.797-2.251 26.332s.309 19.141 2.251 26.332c10.898 40.335 41.075 70.507 81.335 81.322 7.17 1.926 10.842 2.238 26.332 2.238 21.857 0 28.318-1.337 46.489-9.619 22.764-10.377 43.407-31.02 53.784-53.784 4.409-9.675 4.987-11.254 7.402-20.24 1.902-7.076 2.217-10.809 2.217-26.249 0-15.49-.312-19.162-2.238-26.332-10.819-40.273-41.43-70.859-81.322-81.255-9.172-2.39-33.929-3.515-43.332-1.968m3.5 16.692c-1.375.273-4.187.933-6.25 1.468l-3.75.972v23.896l-7.1 3.509c-3.905 1.929-8.826 4.875-10.935 6.546l-3.835 3.037 1.882 5.471C87.271 87.101 93.923 100 95.05 100c.442 0 2.282-2.588 4.089-5.75 4.335-7.584 18.523-22.207 27.044-27.872 3.741-2.486 11.08-6.773 16.309-9.526L152 51.846V38.094l-3.75-1.117c-3.955-1.177-28.986-2.186-33.25-1.34m32 31.954c-4.582 5.595-12.206 17.537-11.589 18.154.187.187 3.926.537 8.308.778 19.04 1.048 36.943 7.444 55.076 19.677l7.295 4.922 6.516-3.644c6.303-3.525 6.495-3.748 5.851-6.811-1.705-8.116-11.392-25.638-18.889-34.167l-3.516-4-5.776 3.05a466.214 466.214 0 0 0-10.866 5.953l-5.09 2.902-5.057-3.712c-4.57-3.354-15.238-8.766-17.042-8.644-.396.026-2.746 2.521-5.221 5.542m-89.584-.841c-7.156 7.708-17.134 25.639-18.873 33.917-.647 3.078-.475 3.27 6.146 6.883 3.746 2.043 8.355 4.695 10.243 5.891l3.432 2.176-.256 11.118c-.148 6.397.19 11.954.796 13.085.754 1.41 2.852 2.28 7.406 3.074 7.09 1.234 21.69 1.498 21.69.392 0-.393-1.776-4.128-3.946-8.3-2.171-4.171-5.172-11.612-6.67-16.535-2.524-8.299-2.739-10.4-2.946-28.852l-.223-19.901-5.858-3.337c-3.221-1.835-6.217-3.342-6.658-3.348-.441-.007-2.368 1.675-4.283 3.737m62.752 45.339c-12.311 6.255-13.45 24.064-2.022 31.626 11.774 7.792 27.273.388 28.624-13.674 1.361-14.163-13.853-24.43-26.602-17.952M170 113.935c0 .665 1.138 3.15 2.528 5.523 7.821 13.346 11.823 32.201 11.315 53.316l-.343 14.274 6.226 3.453 6.225 3.453 5.419-6.727c6.337-7.867 11.844-17.569 15.157-26.702l2.359-6.504-7.193-4.173a1222.735 1222.735 0 0 1-10.193-5.971l-3-1.797v-11.989c0-7.563-.416-12.405-1.128-13.117-2.602-2.605-27.372-5.355-27.372-3.039m-125.75 36.34c-2.888 1.764-5.25 3.913-5.25 4.776 0 2.358 4.531 13.45 8.097 19.822 1.732 3.095 5.591 8.668 8.576 12.385 6.181 7.698 4.174 7.745 18.011-.425 4.502-2.658 8.487-4.833 8.857-4.833.369 0 2.336 1.319 4.371 2.93 4.575 3.624 14.935 9.07 17.252 9.07.945 0 3.708-2.588 6.138-5.75C114.557 182.713 121 172.8 121 171.79c0-.269-4.612-.756-10.25-1.084-17.264-1.002-34.179-7.055-50.798-18.178-4.542-3.041-8.752-5.513-9.355-5.494-.603.018-3.459 1.477-6.347 3.241m112.244 13.39c-9.151 14.445-24.563 27.471-43.143 36.464L105 204.171v7.808c0 5.773.365 7.947 1.402 8.345.77.296 5.993 1.094 11.606 1.774 8.045.975 12.413.981 20.633.025 5.735-.666 11.073-1.46 11.863-1.763 1.116-.428 1.498-3.254 1.716-12.701l.28-12.15 7.5-3.754c4.125-2.064 9.075-5.075 11-6.69l3.5-2.936-2.42-6.815c-2.861-8.055-8.776-19.314-10.146-19.314-.322 0-2.77 3.449-5.44 7.665"/><path fill="#1976D2" fill-opacity=".871" fill-rule="evenodd" d="M107 20.987C54.82 32.006 19 75.769 19 128.5c0 60.808 48.354 109.374 109 109.478 30.54.053 56.658-10.661 77.988-31.99 14.024-14.024 23.24-29.944 28.671-49.523 2.547-9.183 2.764-11.377 2.764-27.965s-.217-18.782-2.764-27.965c-8.591-30.973-29.044-56.096-57.26-70.335C157.183 19.999 129.09 16.322 107 20.987m5 14.391c-3.025.617-6.062 1.486-6.75 1.931-.884.572-1.25 4.274-1.25 12.641v11.833l-4.094 1.638c-4.591 1.837-13.547 7.363-16.148 9.963-1.609 1.61-1.572 2.064.642 7.947 2.898 7.699 6.771 15.423 9.297 18.543l1.906 2.354 3.949-6.758c8.487-14.528 24.62-28.611 43.132-37.653L153 52.778v-7.266c0-4.638-.452-7.612-1.25-8.221-3.941-3.009-28.566-4.194-39.75-1.913M57.326 66.25c-7.559 7.854-14.828 20.323-18.983 32.56-.818 2.409-1.201 4.665-.852 5.014.349.349 4.988 3.119 10.309 6.155l9.675 5.521.013 12.331c.014 14.364.007 14.353 9.911 16.078 7.636 1.33 21.601 1.438 21.601.168 0-.508-1.75-4.22-3.889-8.25-3.784-7.128-6.438-14.577-9.203-25.827-.894-3.638-1.327-11.478-1.281-23.162l.07-17.662-2.598-1.315c-1.43-.724-4.278-2.338-6.329-3.588C63.718 63.023 61.899 62 61.728 62c-.171 0-2.152 1.913-4.402 4.25m91.506-1.5C142.835 71.238 135 83.247 135 85.95c0 .578 1.924 1.05 4.276 1.05 8.48 0 21.394 2.169 29.961 5.033 10.851 3.627 17.011 6.687 27.332 13.579 4.438 2.963 8.67 5.388 9.404 5.388 1.7 0 14.032-6.864 14.012-7.799-.029-1.401-2.944-9.061-5.826-15.307-3.251-7.045-8.629-15.219-14.443-21.951-3.116-3.608-4.087-4.195-5.5-3.321-.944.583-4.416 2.558-7.716 4.387-3.3 1.83-7.324 4.132-8.942 5.115-2.936 1.784-2.951 1.781-7.678-1.615C163.927 66.233 155.64 62 153.22 62c-1.015 0-2.99 1.237-4.388 2.75m-26.195 45.67c-13.052 4.805-17.32 20.037-8.446 30.144 7.479 8.519 18.19 9.431 26.373 2.245 8.519-7.479 9.431-18.19 2.245-26.373-5.557-6.33-13.161-8.598-20.172-6.016m45.824 2.643c-.361.585-.002 1.822.798 2.75 1.668 1.933 6.238 11.509 8.351 17.499 3.968 11.247 4.774 17.146 4.859 35.593l.085 18.406 6.366 3.87c6.158 3.744 6.431 3.813 8.371 2.095 7.139-6.323 19.616-27.743 21.221-36.432l.675-3.656-9.981-5.815-9.981-5.815.062-12.305c.036-7.217-.366-12.732-.972-13.338-2.687-2.687-28.435-5.147-29.854-2.852M43.657 149.678c-5.69 3.428-5.826 3.61-5.19 6.996 1.617 8.623 13.132 28.735 20.484 35.779 2.208 2.115 3.309 2.578 4.263 1.792.707-.583 5.298-3.374 10.202-6.203l8.916-5.143 4.11 2.952c5.041 3.62 15.778 9.149 17.766 9.149 3.059 0 17.792-19.904 17.792-24.035 0-.531-3.001-.965-6.668-.965-18.273 0-36.641-6.25-56.23-19.134-4.069-2.676-7.894-4.831-8.5-4.787-.606.043-3.731 1.663-6.945 3.599M160 156.026c0 2.777-8.117 14.043-15.552 21.587-8.863 8.992-19.545 16.454-32.238 22.52l-8.289 3.962.289 8.164.29 8.164 6 1.245c7.816 1.621 29.482 1.601 36.5-.035l5.5-1.281.278-12.426.278-12.426 4.552-1.882c4.295-1.776 13.315-7.393 16.21-10.096 1.088-1.015 1.02-2.141-.391-6.457-2.683-8.202-9.813-21.516-11.719-21.883-.939-.181-1.708.199-1.708.844"/></svg>